<?xml version="1.0" encoding="UTF-8"?>
<svg version="1.1" xmlns="http://www.w3.org/2000/svg" width="32" height="32">
<path d="M0 0 C4.8846525 2.26787438 7.73212562 5.1153475 10 10 C10.75381535 15.5997712 10.77303575 20.33499991 8.375 25.5 C3.80134327 30.3143755 0.6912538 32.25156236 -6 32.5 C-12.6912538 32.25156236 -15.80134327 30.3143755 -20.375 25.5 C-22.77303575 20.33499991 -22.75381535 15.5997712 -22 10 C-17.52212837 0.3553534 -9.85292056 -1.32635469 0 0 Z " fill="#010101" transform="translate(22,0)"/>
<path d="M0 0 C3.5 0.3125 3.5 0.3125 7 1 C7.33 1.66 7.66 2.32 8 3 C8.33 2.01 8.66 1.02 9 0 C12.00649796 0.33405533 13.30914718 1.23888646 15.75 3.125 C18 6 18 6 18.4375 9.5625 C17.87943948 13.94726121 17.29337649 15.93486642 13.875 18.75 C13.25625 19.1625 12.6375 19.575 12 20 C11.34 19.67 10.68 19.34 10 19 C10.33 18.34 10.66 17.68 11 17 C9.96939453 16.90912109 9.96939453 16.90912109 8.91796875 16.81640625 C8.01691406 16.73261719 7.11585937 16.64882813 6.1875 16.5625 C5.29417969 16.48128906 4.40085937 16.40007813 3.48046875 16.31640625 C1 16 1 16 -2 15 C-1.01 16.65 -0.02 18.3 1 20 C-1.46800047 18.84826645 -3.04783565 17.95216435 -5 16 C-5 14.68 -5 13.36 -5 12 C-3.865625 12.165 -2.73125 12.33 -1.5625 12.5 C2.06931437 13.2343858 2.06931437 13.2343858 5 12 C4.34 10.35 3.68 8.7 3 7 C2.67 8.32 2.34 9.64 2 11 C1.34 11 0.68 11 0 11 C-1.77084117 8.29165469 -2.01052504 7.10735541 -1.6875 3.8125 C-1 1 -1 1 0 0 Z " fill="#F0F0F0" transform="translate(12,8)"/>
<path d="M0 0 C3 1 3 1 4 3 C4.99 3.33 5.98 3.66 7 4 C7 4.66 7 5.32 7 6 C6.01 6 5.02 6 4 6 C3.67 7.32 3.34 8.64 3 10 C2.67 9.01 2.34 8.02 2 7 C-0.31 7 -2.62 7 -5 7 C-5.74926071 10.66305234 -6.2380014 13.42355152 -5 17 C-4.34 17 -3.68 17 -3 17 C-3.33 15.68 -3.66 14.36 -4 13 C-3.01 13 -2.02 13 -1 13 C-0.87625 14.175625 -0.87625 14.175625 -0.75 15.375 C-0.27193661 18.14749104 -0.27193661 18.14749104 2.0625 19.3125 C2.701875 19.539375 3.34125 19.76625 4 20 C0.45332822 21.25127906 -1.72253438 20.72285053 -5.25 19.5625 C-6.14203125 19.27503906 -7.0340625 18.98757812 -7.953125 18.69140625 C-8.62859375 18.46324219 -9.3040625 18.23507813 -10 18 C-8.87548273 20.9719385 -7.77706209 23.33440687 -6 26 C-8.4375 25.1875 -8.4375 25.1875 -11 24 C-11.33 23.01 -11.66 22.02 -12 21 C-12.66 21 -13.32 21 -14 21 C-13.34 14.4 -12.68 7.8 -12 1 C-11.01 1.33 -10.02 1.66 -9 2 C-9 2.66 -9 3.32 -9 4 C-6.36 3.67 -3.72 3.34 -1 3 C-0.67 2.01 -0.34 1.02 0 0 Z " fill="#1E1E1E" transform="translate(17,2)"/>
<path d="M0 0 C4.8846525 2.26787438 7.73212562 5.1153475 10 10 C10.47721874 14.04831628 10.64586424 17.96771247 10 22 C8.47265625 23.86328125 8.47265625 23.86328125 7 25 C6.67 24.34 6.34 23.68 6 23 C6.33 22.34 6.66 21.68 7 21 C7.50070321 17.62642666 7.50070321 17.62642666 7 14 C4.58333229 11.24958334 4.58333229 11.24958334 2 9 C2 8.01 2 7.02 2 6 C1.360625 5.87625 0.72125 5.7525 0.0625 5.625 C-0.618125 5.41875 -1.29875 5.2125 -2 5 C-2.33 4.34 -2.66 3.68 -3 3 C-3.66 3 -4.32 3 -5 3 C-5.4125 3.495 -5.825 3.99 -6.25 4.5 C-8.76822501 6.65847858 -10.79375585 6.21374961 -14 6 C-14.66 4.68 -15.32 3.36 -16 2 C-10.99917391 -0.99092469 -5.64616599 -0.60548697 0 0 Z M4 25 C4.66 25.33 5.32 25.66 6 26 C4.02 26.99 4.02 26.99 2 28 C2.66 27.01 3.32 26.02 4 25 Z " fill="#0A0A0A" transform="translate(22,0)"/>
<path d="M0 0 C3.00649796 0.33405533 4.30914718 1.23888646 6.75 3.125 C9 6 9 6 9.4375 9.6875 C9 13 9 13 7 15 C7 14.34 7 13.68 7 13 C5.68 13 4.36 13 3 13 C-0.09902323 9.90097677 0.0101421 7.60852615 -0.0625 3.25 C-0.041875 2.1775 -0.02125 1.105 0 0 Z " fill="#3C3C3C" transform="translate(21,8)"/>
<path d="M0 0 C6.68539326 0.917603 6.68539326 0.917603 9.625 1.6875 C12.61291066 2.08064614 14.24862339 1.12876989 17 0 C19.3125 0.375 19.3125 0.375 21 1 C21 2.32 21 3.64 21 5 C19 6.75 19 6.75 17 8 C16.34 7.67 15.68 7.34 15 7 C15.33 6.34 15.66 5.68 16 5 C14.96939453 4.90912109 14.96939453 4.90912109 13.91796875 4.81640625 C13.01691406 4.73261719 12.11585937 4.64882813 11.1875 4.5625 C10.29417969 4.48128906 9.40085937 4.40007813 8.48046875 4.31640625 C6 4 6 4 3 3 C3.99 4.65 4.98 6.3 6 8 C3.53199953 6.84826645 1.95216435 5.95216435 0 4 C0 2.68 0 1.36 0 0 Z " fill="#F7F7F7" transform="translate(7,20)"/>
<path d="M0 0 C7.425 0.99 7.425 0.99 15 2 C15 3.32 15 4.64 15 6 C13 8 13 8 10.90625 8.265625 C10.1121875 8.26046875 9.318125 8.2553125 8.5 8.25 C7.7059375 8.25515625 6.911875 8.2603125 6.09375 8.265625 C4 8 4 8 2 6 C2 5.34 2 4.68 2 4 C1.34 2.68 0.68 1.36 0 0 Z " fill="#5E0A0A" transform="translate(9,22)"/>
<path d="M0 0 C-1.75 4.875 -1.75 4.875 -4 6 C-5.99960012 6.039992 -8.00047242 6.04346799 -10 6 C-10.66 4.68 -11.32 3.36 -12 2 C-8.09971775 -0.60018816 -4.52565431 -0.15085514 0 0 Z " fill="#020202" transform="translate(18,0)"/>
<path d="M0 0 C2.71097227 0.37392721 3.82000467 0.81357627 5.75 2.8125 C7 5 7 5 7 9 C6.34 9 5.68 9 5 9 C4.67 8.01 4.34 7.02 4 6 C3.01 6 2.02 6 1 6 C0.67 4.02 0.34 2.04 0 0 Z " fill="#FAFAFA" transform="translate(21,8)"/>
<path d="M0 0 C1.485 0.99 1.485 0.99 3 2 C3 3.32 3 4.64 3 6 C4.32 6.66 5.64 7.32 7 8 C3.98968256 8.93423645 3.13349732 9.04449911 0 8 C-0.38063221 5.6739143 -0.71269945 3.33944736 -1 1 C-0.67 0.67 -0.34 0.34 0 0 Z " fill="#707070" transform="translate(14,14)"/>
<path d="M0 0 C2.31 0.33 4.62 0.66 7 1 C5.02 1.99 5.02 1.99 3 3 C3.99 4.65 4.98 6.3 6 8 C3.53199953 6.84826645 1.95216435 5.95216435 0 4 C0 2.68 0 1.36 0 0 Z " fill="#D1CFCF" transform="translate(7,20)"/>
<path d="M0 0 C2.64 0 5.28 0 8 0 C7.67 0.99 7.34 1.98 7 3 C5.02 3.33 3.04 3.66 1 4 C0.67 2.68 0.34 1.36 0 0 Z " fill="#1B1A1A" transform="translate(16,24)"/>
<path d="M0 0 C1.32 0 2.64 0 4 0 C4 1.32 4 2.64 4 4 C2 5.75 2 5.75 0 7 C-0.66 6.67 -1.32 6.34 -2 6 C-1.34 4.02 -0.68 2.04 0 0 Z " fill="#CECECE" transform="translate(24,21)"/>
<path d="M0 0 C-2.35346396 1.17673198 -3.8806033 1.16623866 -6.5 1.1875 C-7.2940625 1.20167969 -8.088125 1.21585938 -8.90625 1.23046875 C-11 1 -11 1 -13 -1 C-11.39773045 -1.22245393 -9.79303233 -1.42746669 -8.1875 -1.625 C-7.29417969 -1.74101562 -6.40085937 -1.85703125 -5.48046875 -1.9765625 C-3 -2 -3 -2 0 0 Z " fill="#736868" transform="translate(24,29)"/>
<path d="M0 0 C2.475 0.99 2.475 0.99 5 2 C4.67 3.65 4.34 5.3 4 7 C3.01 7 2.02 7 1 7 C0.67 4.69 0.34 2.38 0 0 Z " fill="#646464" transform="translate(21,12)"/>
</svg>
